<svg width="160" height="29" viewBox="0 0 160 29" fill="none" xmlns="http://www.w3.org/2000/svg">
<path d="M28.2785 22.312V27.368H0.6305V22.312H11.7025V18.472C9.69717 18.216 7.93717 17.6933 6.4225 16.904C4.90783 16.1147 3.7345 15.112 2.9025 13.896C2.09183 12.68 1.6865 11.3253 1.6865 9.832C1.6865 8.12533 2.21983 6.61067 3.2865 5.288C4.35317 3.944 5.85717 2.89867 7.7985 2.152C9.73983 1.40533 11.9585 1.032 14.4545 1.032C16.9505 1.032 19.1692 1.40533 21.1105 2.152C23.0518 2.89867 24.5558 3.944 25.6225 5.288C26.6892 6.61067 27.2225 8.12533 27.2225 9.832C27.2225 11.3253 26.8065 12.68 25.9745 13.896C25.1638 15.112 24.0012 16.1147 22.4865 16.904C20.9718 17.6933 19.2118 18.216 17.2065 18.472V22.312H28.2785ZM7.4145 9.832C7.4145 10.6 7.71317 11.2827 8.3105 11.88C8.90783 12.4773 9.73983 12.9467 10.8065 13.288C11.8732 13.608 13.0892 13.768 14.4545 13.768C15.8198 13.768 17.0358 13.608 18.1025 13.288C19.1692 12.9467 20.0012 12.4773 20.5985 11.88C21.1958 11.2827 21.4945 10.6 21.4945 9.832C21.4945 8.65867 20.8438 7.70933 19.5425 6.984C18.2412 6.25867 16.5452 5.896 14.4545 5.896C12.3638 5.896 10.6678 6.25867 9.3665 6.984C8.06517 7.70933 7.4145 8.65867 7.4145 9.832ZM38.4518 6.344H57.7158V10.376H33.0758V0.839998H38.4518V6.344ZM59.0598 15.464H31.4118V11.528H59.0598V15.464ZM57.4598 23.88H38.3238V24.904H57.7478V28.328H33.0438V21H52.1798V20.008H32.9798V16.616H57.4598V23.88ZM88.689 28.328H83.281V0.999998H88.689V28.328ZM71.665 1.192C73.3503 1.192 74.8437 1.56533 76.145 2.312C77.4677 3.03733 78.5023 4.072 79.249 5.416C79.9957 6.76 80.369 8.30667 80.369 10.056C80.369 11.8053 79.9957 13.352 79.249 14.696C78.5023 16.04 77.4677 17.0853 76.145 17.832C74.8437 18.5573 73.3503 18.92 71.665 18.92C69.9797 18.92 68.4757 18.5573 67.153 17.832C65.8303 17.0853 64.7957 16.04 64.049 14.696C63.3023 13.352 62.929 11.8053 62.929 10.056C62.929 8.30667 63.3023 6.76 64.049 5.416C64.7957 4.072 65.8303 3.03733 67.153 2.312C68.4757 1.56533 69.9797 1.192 71.665 1.192ZM71.665 6.024C70.5983 6.024 69.745 6.408 69.105 7.176C68.465 7.92267 68.145 8.88267 68.145 10.056C68.145 11.2507 68.465 12.2213 69.105 12.968C69.745 13.7147 70.5983 14.088 71.665 14.088C72.7317 14.088 73.585 13.7147 74.225 12.968C74.865 12.2 75.185 11.2293 75.185 10.056C75.185 8.88267 74.865 7.92267 74.225 7.176C73.585 6.408 72.7317 6.024 71.665 6.024ZM81.713 25.896C80.9023 26.2587 79.8357 26.536 78.513 26.728C77.1903 26.9413 75.825 27.048 74.417 27.048H62.193V21.992H74.641C76.0063 21.992 77.3183 21.9067 78.577 21.736C79.857 21.544 80.9023 21.2667 81.713 20.904V25.896ZM120.375 6.152H101.687V2.408H108.279V0.487999H113.783V2.408H120.375V6.152ZM130.807 5.544V10.44H127.607V15.176H122.199V0.999998H127.607V5.544H130.807ZM111.031 15.432C108.62 15.432 106.636 15.0693 105.079 14.344C103.522 13.5973 102.743 12.52 102.743 11.112C102.743 9.704 103.522 8.63733 105.079 7.912C106.636 7.16533 108.62 6.792 111.031 6.792C113.442 6.792 115.426 7.16533 116.983 7.912C118.54 8.63733 119.319 9.704 119.319 11.112C119.319 12.52 118.54 13.5973 116.983 14.344C115.426 15.0693 113.442 15.432 111.031 15.432ZM111.031 10.216C110.028 10.216 109.228 10.2907 108.631 10.44C108.055 10.5893 107.767 10.8133 107.767 11.112C107.767 11.4107 108.055 11.6347 108.631 11.784C109.228 11.9333 110.028 12.008 111.031 12.008C112.034 12.008 112.823 11.9333 113.399 11.784C113.996 11.6347 114.295 11.4107 114.295 11.112C114.295 10.8133 113.996 10.5893 113.399 10.44C112.823 10.2907 112.034 10.216 111.031 10.216ZM108.823 24.808H127.895V28.328H103.511V20.616H122.295V19.624H103.447V16.136H127.607V23.784H108.823V24.808ZM159.156 14.376H153.748V0.999998H159.156V14.376ZM141.684 1.032C143.455 1.032 145.002 1.30933 146.324 1.864C147.647 2.41867 148.671 3.19733 149.396 4.2C150.122 5.20267 150.484 6.35467 150.484 7.656C150.484 8.97867 150.122 10.1413 149.396 11.144C148.671 12.1253 147.647 12.8933 146.324 13.448C145.002 14.0027 143.455 14.28 141.684 14.28C139.914 14.28 138.367 14.0027 137.044 13.448C135.722 12.8933 134.698 12.1253 133.972 11.144C133.247 10.1413 132.884 8.97867 132.884 7.656C132.884 6.35467 133.247 5.20267 133.972 4.2C134.698 3.19733 135.722 2.41867 137.044 1.864C138.367 1.30933 139.914 1.032 141.684 1.032ZM141.684 5.288C140.639 5.288 139.796 5.50133 139.156 5.928C138.538 6.35467 138.228 6.93067 138.228 7.656C138.228 8.38133 138.538 8.95733 139.156 9.384C139.796 9.81067 140.639 10.024 141.684 10.024C142.73 10.024 143.562 9.81067 144.18 9.384C144.82 8.95733 145.14 8.38133 145.14 7.656C145.14 6.93067 144.82 6.35467 144.18 5.928C143.562 5.50133 142.73 5.288 141.684 5.288ZM159.156 23.496H140.404V24.584H159.444V28.328H135.06V20.168H153.812V19.08H134.996V15.336H159.156V23.496Z" fill="black"/>
</svg>
